<svg xmlns="http://www.w3.org/2000/svg" viewBox="0 0 66.23 72"><defs><style>.cls-1{fill:#f711dc;opacity:0.9;}.cls-2{opacity:0.8;}.cls-3{fill:#00ffda;}</style></defs><title>Asset 2</title><g id="Layer_2" data-name="Layer 2"><g id="Capa_1" data-name="Capa 1"><circle class="cls-1" cx="32.07" cy="63.98" r="8.02"/><g class="cls-2"><line class="cls-3" x1="0.11" y1="0.03" x2="14.18" y2="50.29"/><polygon class="cls-3" points="14.07 50.29 0 0.06 0.23 0 14.29 50.26 14.07 50.29"/></g><g class="cls-2"><line class="cls-3" x1="1.1" y1="0.03" x2="15.17" y2="50.29"/><polygon class="cls-3" points="15.06 50.29 0.99 0.06 1.22 0 15.28 50.26 15.06 50.29"/></g><g class="cls-2"><line class="cls-3" x1="2.09" y1="0.03" x2="16.16" y2="50.29"/><polygon class="cls-3" points="16.05 50.29 1.98 0.06 2.21 0 16.27 50.26 16.05 50.29"/></g><g class="cls-2"><line class="cls-3" x1="3.09" y1="0.03" x2="17.15" y2="50.29"/><polygon class="cls-3" points="17.04 50.29 2.97 0.06 3.2 0 17.27 50.26 17.04 50.29"/></g><g class="cls-2"><line class="cls-3" x1="4.08" y1="0.03" x2="18.14" y2="50.29"/><polygon class="cls-3" points="18.03 50.29 3.96 0.06 4.19 0 18.26 50.26 18.03 50.29"/></g><g class="cls-2"><line class="cls-3" x1="5.07" y1="0.03" x2="19.13" y2="50.29"/><polygon class="cls-3" points="19.02 50.29 4.96 0.06 5.18 0 19.25 50.26 19.02 50.29"/></g><g class="cls-2"><line class="cls-3" x1="6.06" y1="0.03" x2="20.12" y2="50.29"/><polygon class="cls-3" points="20.01 50.29 5.95 0.06 6.17 0 20.24 50.26 20.01 50.29"/></g><g class="cls-2"><line class="cls-3" x1="7.05" y1="0.03" x2="21.12" y2="50.29"/><polygon class="cls-3" points="21 50.29 6.94 0.06 7.16 0 21.23 50.26 21 50.29"/></g><g class="cls-2"><line class="cls-3" x1="8.04" y1="0.03" x2="22.11" y2="50.29"/><polygon class="cls-3" points="21.99 50.29 7.93 0.06 8.15 0 22.22 50.26 21.99 50.29"/></g><g class="cls-2"><line class="cls-3" x1="9.03" y1="0.03" x2="23.1" y2="50.29"/><polygon class="cls-3" points="22.98 50.29 8.92 0.06 9.14 0 23.21 50.26 22.98 50.29"/></g><g class="cls-2"><line class="cls-3" x1="10.02" y1="0.03" x2="24.09" y2="50.29"/><polygon class="cls-3" points="23.98 50.29 9.91 0.06 10.14 0 24.12 49.96 23.98 50.29"/></g><g class="cls-2"><line class="cls-3" x1="28.21" y1="0.03" x2="42.28" y2="50.29"/><polygon class="cls-3" points="42.17 50.32 28.1 0.06 28.33 0 42.4 50.26 42.17 50.32"/></g><g class="cls-2"><line class="cls-3" x1="29.21" y1="0.03" x2="43.27" y2="50.29"/><rect class="cls-3" x="36.12" y="-0.93" width="0.23" height="52.19" transform="translate(-5.44 10.7) rotate(-15.64)"/></g><g class="cls-2"><line class="cls-3" x1="30.2" y1="0.03" x2="44.26" y2="50.29"/><rect class="cls-3" x="37.11" y="-0.93" width="0.23" height="52.19" transform="translate(-5.4 10.97) rotate(-15.64)"/></g><g class="cls-2"><line class="cls-3" x1="31.19" y1="0.03" x2="45.25" y2="50.29"/><polygon class="cls-3" points="45.14 50.32 31.08 0.06 31.3 0 45.37 50.26 45.14 50.32"/></g><g class="cls-2"><line class="cls-3" x1="32.18" y1="0.03" x2="46.25" y2="50.29"/><polygon class="cls-3" points="46.13 50.32 32.07 0.06 32.29 0 46.36 50.26 46.13 50.32"/></g><g class="cls-2"><line class="cls-3" x1="33.17" y1="0.03" x2="47.24" y2="50.29"/><polygon class="cls-3" points="47.12 50.32 33.06 0.06 33.28 0 47.35 50.26 47.12 50.32"/></g><g class="cls-2"><line class="cls-3" x1="34.16" y1="0.03" x2="48.23" y2="50.29"/><rect class="cls-3" x="41.08" y="-0.93" width="0.23" height="52.19" transform="translate(-5.26 12.04) rotate(-15.64)"/></g><g class="cls-2"><line class="cls-3" x1="35.15" y1="0.03" x2="49.22" y2="50.29"/><rect class="cls-3" x="42.07" y="-0.93" width="0.24" height="52.19" transform="translate(-5.22 12.3) rotate(-15.64)"/></g><g class="cls-2"><line class="cls-3" x1="36.14" y1="0.03" x2="50.21" y2="50.29"/><rect class="cls-3" x="43.06" y="-0.93" width="0.24" height="52.19" transform="translate(-5.18 12.57) rotate(-15.64)"/></g><g class="cls-2"><line class="cls-3" x1="37.13" y1="0.03" x2="51.2" y2="50.29"/><polygon class="cls-3" points="51.09 50.32 37.02 0.06 37.25 0 51.31 50.26 51.09 50.32"/></g><g class="cls-2"><line class="cls-3" x1="38.13" y1="0.03" x2="52.19" y2="50.29"/><polygon class="cls-3" points="52.08 50.32 38.01 0.06 38.24 0 52.3 50.26 52.08 50.32"/></g><polygon class="cls-1" points="14.07 50.29 24.03 50.29 38.09 0.03 28.13 0.03 14.07 50.29"/><polygon class="cls-1" points="42.31 50.29 52.16 50.29 66.23 0.03 56.38 0.03 42.31 50.29"/></g></g></svg>